PathFileType	4	(X/Y/Z)	C:/Users/beibeiliu/ov580/test_trc/User2\sequence.18_training_dense_left.trc
DataRate	CameraRate	NumFrames	NumMarkers	Units	OrigDataRate	OrigDataStartFrame	OrigNumFrames
120	120	7	19	mm	120	215	429
Frame#	Time	ThumbCMC			ThumbMCP			ThumbIP			ThumbTip			IndexMCP			IndexPIP			IndexTip			MiddleMCP			MiddlePIP			MiddleTip			RingMCP			RingPIP			RingTip			PinkyMCP			PinkyPIP			PinkyTip			BackHand1			BackHand2			BackHand3	
		X0	Y0	Z0	X1	Y1	Z1	X2	Y2	Z2	X3	Y3	Z3	X4	Y4	Z4	X5	Y5	Z5	X6	Y6	Z6	X7	Y7	Z7	X8	Y8	Z8	X9	Y9	Z9	X10	Y10	Z10	X11	Y11	Z11	X12	Y12	Z12	X13	Y13	Z13	X14	Y14	Z14	X15	Y15	Z15	X16	Y16	Z16	X17	Y17	Z17	X18	Y18	Z18	
214	1.78333	-162.409	9.20485	53.3521	-141.156	12.3354	20.0425	-117.894	-6.83964	-0.421495	-105.049	-30.3158	6.63234	-150.535	-37.1754	-17.9381	-122.601	-30.1256	-26.8956	-122.668	-8.0757	3.01217	-143.069	-56.7026	-11.7735	-112.161	-41.9752	-24.6896	-116.22	-22.129	8.8427	-128.58	-71.4009	1.7909	-103.669	-60.3343	-12.8825	-103.989	-35.567	16.5913	-122.333	-77.2659	24.0016	-97.9714	-66.7613	2.23785	-88.5546	-41.1332	22.9316	-156.474	-60.7756	54.8469	-165.189	-50.1674	85.6877	-178.981	-30.7823	56.5161	
215	1.79167	-158.514	11.1889	54.5145	-139.211	17.7814	23.7513	-116.617	-0.546864	0.673027	-105.131	-25.2959	5.50938	-152.082	-30.1234	-12.545	-123.513	-25.6065	-27.234	-119.593	-6.73198	2.86508	-142.406	-52.8349	-14.2812	-114.657	-41.2784	-25.639	-116.361	-19.0875	11.6426	-131.842	-65.1564	-4.78407	-104.722	-56.6789	-12.5385	-104.304	-31.9168	14.3609	-125.678	-76.5545	20.7222	-103.516	-66.2983	0.14258	-91.5319	-40.4116	21.1925	-156.443	-57.265	55.2765	-169.797	-46.7857	86.0087	-179.338	-25.4688	54.0621	
216	1.8	-156.018	17.3283	61.7496	-135.553	21.5693	26.3331	-115.941	6.19289	2.54891	-108.339	-24.3995	5.72511	-154.012	-20.0669	-14.4971	-122.366	-15.5706	-25.0651	-118.795	0.304353	5.01989	-149.719	-39.6197	-14.6953	-115.554	-31.5734	-26.2541	-116.699	-18.5361	12.5989	-138.557	-57.1893	-2.85822	-109.84	-50.1436	-14.9708	-107.307	-28.9892	15.3305	-134.128	-68.7274	16.5834	-110.345	-62.4987	-3.47147	-96.6775	-39.4088	18.8057	-163.312	-49.4657	51.7549	-169.039	-46.08	83.3409	-178.264	-18.1898	56.5566	
217	1.80833	-152.471	24.681	59.6957	-132.492	28.1989	28.9934	-114.916	12.1526	5.82275	-110.375	-18.2288	5.16118	-155.259	-7.90335	-15.7939	-127.324	-8.03583	-27.5207	-119.662	7.74783	5.52301	-152.53	-30.517	-20.1943	-120.788	-24.2209	-28.2775	-117.104	-12.8129	10.8896	-143.375	-48.2178	-9.60837	-116.002	-44.6984	-18.7145	-111.031	-24.8185	15.0179	-140.022	-62.2765	14.9386	-115.78	-59.6916	-7.33394	-102.163	-39.6435	18.3859	-167.672	-42.7567	49.7277	-171.634	-39.4938	83.2841	-178.289	-10.3485	57.7396	
218	1.81667	-148.465	27.8953	63.9475	-129.507	35.0431	34.868	-116.438	15.9993	5.70938	-113.053	-14.4845	1.29205	-157.214	3.04868	-12.5163	-129.673	1.27154	-26.4683	-119.944	13.3584	7.7343	-157.939	-20.6629	-19.6275	-126.414	-18.7529	-29.4307	-120.651	-7.77685	10.7939	-150.833	-39.5239	-9.05335	-121.494	-33.2775	-21.6722	-112.784	-24.1499	10.2849	-147.975	-56.8839	12.3154	-124.881	-47.8069	-11.6721	-106.367	-35.6079	13.8268	-171.256	-35.3546	49.1919	-176.455	-35.9309	80.7746	-179.936	-2.47725	61.8471	
219	1.825	-144.163	29.4383	69.6166	-125.6	39.5595	38.7189	-117.474	20.0296	4.51865	-116.414	-7.05371	0.400681	-159.58	15.8102	-9.47596	-131.911	10.2073	-25.3071	-122.176	18.7132	12.0253	-162.807	-6.63123	-16.3871	-131.918	-10.5031	-30.7276	-122.845	-4.70154	9.44089	-157.151	-27.629	-15.0396	-131.681	-24.1926	-25.3615	-117.6	-19.2217	10.2014	-156.807	-43.4411	6.89522	-134.954	-43.628	-16.741	-114.742	-32.7718	6.07555	-174.067	-28.2571	47.4036	-180.982	-27.7528	79.6641	-178.094	4.62652	61.4095	
220	1.83333	-139.113	31.4636	75.351	-121.614	40.1196	43.3381	-114.289	26.9877	8.43959	-123.007	-3.70812	-0.113069	-159.634	26.0885	-5.22286	-132.304	21.313	-21.2835	-119.633	22.732	10.9305	-166.935	9.3467	-12.6803	-136.116	4.5337	-30.4569	-125.679	4.62545	10.3331	-165.608	-14.986	-15.389	-139.035	-17.8088	-26.7356	-123.926	-15.0846	5.79761	-167.876	-35.637	0.505512	-144.947	-32.2403	-20.4438	-121.739	-27.3264	5.17165	-178.875	-22.5818	45.8773	-181.287	-20.9311	78.1385	-176.603	14.0006	64.9756	
